<svg xmlns="http://www.w3.org/2000/svg" width="20.028" height="18.415" viewBox="0 0 20.028 18.415">
  <path id="Path_37287" data-name="Path 37287" d="M4.8,27.447v6.4A1.662,1.662,0,0,1,3.128,35.5H1.668A1.662,1.662,0,0,1,0,33.846V26.991A1.662,1.662,0,0,1,1.668,25.34c1.547,0,1.71-.037,2.109.13a.329.329,0,0,1,.177.433.335.335,0,0,1-.437.176C3.274,25.976,3.25,26,1.668,26a1,1,0,0,0-1,.991v6.854a1,1,0,0,0,1,.991h1.46a1,1,0,0,0,1-.991V27.259a.33.33,0,0,1,.074-.212A29.8,29.8,0,0,1,7.3,25.3a2.023,2.023,0,0,1,1.986.016L12.96,27.44a1.972,1.972,0,0,1,.725,2.692,2.006,2.006,0,0,1-2.4.879L8.094,29.888a.329.329,0,0,1-.2-.422.335.335,0,0,1,.426-.2l3.189,1.123a1.336,1.336,0,0,0,1.6-.585,1.314,1.314,0,0,0-.483-1.793L8.947,25.886a1.347,1.347,0,0,0-1.323-.011Zm13.723-1.4V18.073a1,1,0,0,0-1-.991h-.876a.33.33,0,1,0,0,.661h.876a.332.332,0,0,1,.334.33v8.093c-.1.041.079-.05-2.519,1.342a.329.329,0,0,0-.135.448.336.336,0,0,0,.452.133l2.387-1.279a.887.887,0,0,1,1.151.276A.866.866,0,0,1,19,28.308l-6.52,4.756a2.009,2.009,0,0,1-1.441.37l-4.61-.582a.33.33,0,1,0-.084.655l4.61.582a2.678,2.678,0,0,0,1.921-.494L19.4,28.84a1.554,1.554,0,0,0-.877-2.8ZM7.508,23.853a.332.332,0,0,0,.334-.33v-5.45a.332.332,0,0,1,.334-.33h6.173v3.152l-1.381-.528a.337.337,0,0,0-.241,0l-1.381.528V19.27a.334.334,0,0,0-.667,0v2.106a.333.333,0,0,0,.454.308l1.715-.656a11.142,11.142,0,0,0,1.835.678.332.332,0,0,0,.334-.33V17.412a.332.332,0,0,0-.334-.33H8.175a1,1,0,0,0-1,.991v5.45A.332.332,0,0,0,7.508,23.853Z" transform="translate(0 -17.082)" fill="#1ebac9"/>
</svg>
