<svg xmlns="http://www.w3.org/2000/svg" width="30.485" height="28.976" viewBox="0 0 30.485 28.976">
  <g id="Group_2268" data-name="Group 2268" transform="translate(0 0)">
    <g id="Group_2267" data-name="Group 2267">
      <path id="Path_4239" data-name="Path 4239" d="M29.973,25.549,16.3,13.086a1.556,1.556,0,0,0-2.106,0L.512,25.549a1.563,1.563,0,0,0,1.053,2.719H3.749V40.755a.9.9,0,0,0,.9.9h7.5a.9.9,0,0,0,.9-.9V33.173h4.406v7.582a.9.9,0,0,0,.9.9h7.5a.9.9,0,0,0,.9-.9V28.268h2.185a1.563,1.563,0,0,0,1.053-2.719Z" transform="translate(0 -12.675)" fill="#fff"/>
    </g>
  </g>
</svg>
