<svg xmlns="http://www.w3.org/2000/svg" width="52.134" height="50.848" viewBox="0 0 52.134 50.848">
  <g id="Group_101234" data-name="Group 101234" transform="translate(54.75 -455.287)">
    <path id="Vector" d="M20.587,28.7V14.015c0-4.948-3.6-8.973-8.036-8.973S4.515,9.068,4.515,14.015v8.538a2.4,2.4,0,0,1-2.258,2.521A2.4,2.4,0,0,1,0,22.554V14.015C0,6.287,5.63,0,12.551,0S25.1,6.287,25.1,14.015V28.7a2.4,2.4,0,0,1-2.258,2.521A2.4,2.4,0,0,1,20.587,28.7Z" transform="translate(-49.602 459.471)" fill="#b1b4b5" style="isolation: isolate"/>
    <path id="Vector-2" data-name="Vector" d="M5.136,28.32C2.3,28.32,0,25.634,0,22.32V6C0,2.686,2.3,0,5.136,0H30.265C33.1,0,35.4,2.686,35.4,6V22.32c0,3.314-2.3,6-5.136,6Z" transform="translate(-54.75 477.815)" fill="#ffb636" style="isolation: isolate"/>
    <path id="Vector-3" data-name="Vector" d="M10.781,0C4.827,0,0,5.421,0,12.107c0,5.338,3.076,9.869,7.346,11.479l-.014,1.082-.016,1.269-.008.656v.669L7.3,30.037c0,.945.014,1.9.02,2.864l.012,1.438.006.715.014.711.055,2.774.026,1.325c0,.217.008.431.018.642s.031.421.063.627.066.41.116.61l.072.3.083.294c.109.388.22.763.317,1.123s.178.7.295,1.033.249.639.374.932c.248.585.457,1.095.648,1.514l.249.561.192.414c.051.113.092.2.121.257l.042.088c.015.031.032.063.049.093a1.046,1.046,0,0,0,1.548.36l.615-.453.03-.022c.021-.015.05-.037.085-.066l.134-.108c.048-.043.108-.093.168-.149a6.662,6.662,0,0,0,.872-.975,6.21,6.21,0,0,0,.824-1.515.868.868,0,0,0,.094-.452,1.036,1.036,0,0,0-.334-.479,1.573,1.573,0,0,1-.4-.5.722.722,0,0,1-.039-.261c0-.088-.007-.177,0-.267a5.433,5.433,0,0,1,.1-.971,1.489,1.489,0,0,1-1.16-1.515,1.512,1.512,0,0,1,1.029-1.486,1.136,1.136,0,0,0,.313.045,1.35,1.35,0,0,0,1.266-1.421v-4.3a1.388,1.388,0,0,0-1.027-1.395v-.027H13.97c-.755,0-1.164-.687-1.164-1.535a1.419,1.419,0,0,1,.872-1.5h.14a1.135,1.135,0,0,0,.29-.039h.079V29.3a1.478,1.478,0,0,0-.009-2.721c0-.657-.013-1.294-.018-1.908l-.01-1.058c4.3-1.589,7.411-6.138,7.411-11.5C21.562,5.421,16.735,0,10.781,0ZM4.834,12.107A1.473,1.473,0,0,1,3.52,10.274c.744-3.733,3.712-6.522,7.261-6.522s6.517,2.789,7.261,6.522a1.473,1.473,0,0,1-1.314,1.833Z" transform="translate(-24.178 455.287)" fill="#597b91" style="isolation: isolate"/>
  </g>
</svg>
