<svg xmlns="http://www.w3.org/2000/svg" width="52.123" height="14" viewBox="0 0 52.123 14">
  <g id="Group_100953" data-name="Group 100953" transform="translate(-35 -301.16)">
    <g id="Group_88083" data-name="Group 88083" transform="translate(35 301)">
      <path id="Path_4030" data-name="Path 4030" d="M-5.455-3.125a.464.464,0,0,0-.328.792l2.3,2.3a.461.461,0,0,0,.654,0l2.3-2.3A.464.464,0,0,0-.86-3.125Z" transform="translate(5.919 9.575)" fill="#141414" opacity="0.6"/>
      <text id="_966" data-name="+966" transform="translate(7.754 11.16)" fill="#141414" font-size="10" font-family="SegoeUI, Segoe UI" opacity="0.6"><tspan x="0" y="0">+966</tspan></text>
    </g>
    <g id="Group_100811" data-name="Group 100811" transform="translate(70.76 297.705)">
      <path id="Path_57466" data-name="Path 57466" d="M0,5.5H16.363V16.238H0Z" fill="#3d9635"/>
      <g id="Group_100811-2" data-name="Group 100811" transform="translate(2.975 7.072)">
        <path id="Path_57467" data-name="Path 57467" d="M5.946,9.5c-.024.376-.055,1.041.23,1.108.343.035.153-.655.278-.78.024-.061.067-.061.071.016v.588a.272.272,0,0,0,.2.282c.09-.006.15,0,.185.1.015.337.028.674.042,1.012,0,0,.21.071.22-.569a6.641,6.641,0,0,1-.024-.761c0-.071.082-.077.14-.038.09.071.13.157.269.122.213-.067.339-.179.343-.366a1.767,1.767,0,0,0-.1-.524c.01-.032-.042-.112-.031-.144.038.067.1.061.108,0a.532.532,0,0,0-.182-.318c-.076-.074-.187-.058-.228.1a.932.932,0,0,0,.175.562.622.622,0,0,1,.042.283.127.127,0,0,1-.173-.039s-.171-.144-.171-.173A.767.767,0,0,0,7.325,9.5a.611.611,0,0,0-.112-.244c-.042-.055-.1-.055-.126,0a.943.943,0,0,0,.013.6c.038.129.1.209.071.209-.024.074-.072.054-.106-.029a2.319,2.319,0,0,1-.059-.549c-.016-.145-.033-.453-.117-.533-.051-.077-.128-.038-.153.035a3.222,3.222,0,0,0,.009.418,5.127,5.127,0,0,1,.1.676c.007.318-.163.138-.153-.022a1.62,1.62,0,0,0-.008-.61c-.028-.084-.061-.1-.129-.087-.054-.006-.192.164-.231.446a2.551,2.551,0,0,0-.047.277c-.02.144-.1.247-.164-.022-.051-.2-.084-.678-.17-.566" transform="translate(-5.873 -8.738)" fill="#fff"/>
        <path id="Path_57468" data-name="Path 57468" d="M6.93,12.92c-.3.17-.6.325-.9.485a.951.951,0,0,1,.709-.646c.184.007.137.08.187.161" transform="translate(-5.923 -10.619)" fill="#fff"/>
        <path id="Path_57469" data-name="Path 57469" d="M8.483,8.9a.263.263,0,0,0-.057.019.19.19,0,0,0-.12.235c.086.591.141,1.041.228,1.629.015.071-.038.161-.1.153-.114-.086-.142-.263-.334-.256a.4.4,0,0,0-.32.337.956.956,0,0,0,0,.385.26.26,0,0,0,.32.09c.084-.038.153-.134.185-.112.018.039,0,.347-.4.582-.245.122-.438.153-.544-.071-.063-.141.005-.674-.153-.552-.472,1.368,1.1,1.561,1.278.058.012-.042.047-.083.072-.074s.02.022.023.055C8.522,12.74,7.34,12.83,7.14,12.4a1.421,1.421,0,0,1-.071-.46.259.259,0,0,0-.051-.153c-.048-.038-.112.067-.126.251a1.841,1.841,0,0,0-.014.328c.063,1.079,1.585.617,1.834-.273a3.417,3.417,0,0,0,.038-.848h.005l0,0c.153.183.364.023.409-.039a.066.066,0,0,1,.106-.013.232.232,0,0,0,.367-.116,4.473,4.473,0,0,0,.051-.511.416.416,0,0,0-.165.077.051.051,0,0,0-.012.026c-.006.045-.012.1-.019.145l0,.013a.03.03,0,0,1-.015.013A.051.051,0,0,1,9.4,10.8c-.036-.183-.186-.212-.277.077-.063.058-.173.067-.185-.013.016-.2-.055-.221-.194-.131-.044-.386-.09-.752-.135-1.137.059,0,.111.048.165-.026a2.324,2.324,0,0,0-.248-.652l-.011-.013,0,0h0S8.5,8.9,8.5,8.9s-.013,0-.02,0m-.423,2.11a.08.08,0,0,1,.084.058.113.113,0,0,1-.017.1c-.012.022-.051.013-.082.013a.075.075,0,0,1-.075-.042c-.011-.035.019-.071.034-.1L8,11.029a.105.105,0,0,1,.051-.022" transform="translate(-6.334 -8.73)" fill="#fff"/>
        <path id="Path_57470" data-name="Path 57470" d="M11.436,8.852a.262.262,0,0,0-.106.032.256.256,0,0,0-.036.307c.06.029.12.1.079.134-.169.2-.61.543-.632.607v.006h0a1.014,1.014,0,0,0,.329,0v0a4.881,4.881,0,0,0,.544-.617c-.022-.022-.045-.038-.068-.061a.044.044,0,0,1,0-.071.221.221,0,0,0,.019-.307.245.245,0,0,0-.135-.029m-.021.176c.028,0,.06.029.077.067s.008.084-.019.094-.065-.022-.083-.064-.008-.087.02-.093c0,0,0,0,.005,0" transform="translate(-8.223 -8.71)" fill="#fff"/>
        <path id="Path_57471" data-name="Path 57471" d="M5.962,14.92a1.111,1.111,0,0,0-.092.885.176.176,0,0,0,.191.071c.1-.051.153-.292.126-.379-.035-.064-.063-.074-.1-.019-.074.167-.1.051-.111-.045A2.454,2.454,0,0,1,6,14.957c.019-.132,0-.094-.037-.039" transform="translate(-5.818 -11.649)" fill="#fff"/>
        <path id="Path_57472" data-name="Path 57472" d="M18.551,11.416c-.161-.4-.387-.784-.46-.932S17.477,9.453,17.4,9.35c-.176-.235.286.1-.059-.369-.13-.125-.138-.132-.249-.235-.051-.045-.188-.122-.211.007a.827.827,0,0,0,.012.279.972.972,0,0,0,.139.238,17.975,17.975,0,0,1,1.5,2.717c.075-.038.059-.5.014-.572" transform="translate(-11.22 -8.627)" fill="#fff"/>
        <path id="Path_57473" data-name="Path 57473" d="M18.754,12.812c-.033.038.078.215.223.212.241-.029.454-.183.649-.584a1.119,1.119,0,0,0,.148-.45,11.03,11.03,0,0,0-.162-2.274.409.409,0,0,1,.006-.157c.016-.022.069,0,.1-.051s-.108-.44-.194-.591c-.031-.067-.041-.112-.092.006a.953.953,0,0,0-.084.431c.115.893.15,1.68.227,2.573a.394.394,0,0,1-.056.263,2.256,2.256,0,0,1-.76.623" transform="translate(-12.137 -8.708)" fill="#fff"/>
        <path id="Path_57474" data-name="Path 57474" d="M24.033,15.341c-.174.112-.174.244-.033.247a.829.829,0,0,0,.724-.389,1.412,1.412,0,0,0,.117-.5,13.216,13.216,0,0,0-.131-2.454,1.237,1.237,0,0,1-.024-.231c.016-.042.094.006.121-.045.043-.045-.2-.4-.288-.553-.03-.067-.04-.112-.091.01a.767.767,0,0,0-.051.427,26.6,26.6,0,0,1,.242,2.775.88.88,0,0,1-.049.228,1.619,1.619,0,0,1-.236.311c-.08.064-.247.129-.3.177" transform="translate(-14.652 -9.929)" fill="#fff"/>
        <path id="Path_57475" data-name="Path 57475" d="M24.852,11.893c0-.228.006-.424,0-.594s-.076-.806-.1-.941-.048-.344-.081-.507a1.529,1.529,0,0,1-.03-.289c.013-.045.069,0,.094-.051a1.939,1.939,0,0,0-.228-.713c-.032-.067-.092-.045-.163.064-.069.071-.043.231-.018.386a15.872,15.872,0,0,1,.275,3.048c-.01.08.256-.247.252-.4" transform="translate(-14.849 -8.664)" fill="#fff"/>
        <path id="Path_57476" data-name="Path 57476" d="M22.485,11.666c-.109,0-.337-.238-.4-.376a.3.3,0,0,1,.013-.2c.041-.029.1-.064.149-.029,0,0,.048.074.039.083.059.032.085.013.092-.016,0-.045-.018-.074-.018-.125.025-.145.17-.164.225-.074a.577.577,0,0,1,.061.251c0,.042-.059-.006-.093,0s-.041.051-.044.09c-.007.106-.017.269-.019.395" transform="translate(-13.759 -9.696)" fill="#fff"/>
        <path id="Path_57477" data-name="Path 57477" d="M18.458,12.146c.031-.312-.01-.941-.013-1.125-.01-.43-.074-1.262-.1-1.4-.034-.263.1.029.076-.125a1.755,1.755,0,0,0-.322-.678c-.049-.077-.047-.093-.123.019a.9.9,0,0,0,.01.527,10.825,10.825,0,0,1,.2,1.529,15.329,15.329,0,0,1,.012,1.626c.082,0,.214-.153.259-.373" transform="translate(-11.741 -8.663)" fill="#fff"/>
        <path id="Path_57478" data-name="Path 57478" d="M24.366,11.654c-.191-.363-.482-.787-.558-.931S23.075,9.5,22.993,9.4c-.24-.28.11-.045-.045-.267a2.028,2.028,0,0,0-.283-.307c-.056-.038-.091-.119-.109.013a3.009,3.009,0,0,0-.009.353.476.476,0,0,0,.1.219,20.483,20.483,0,0,1,1.721,2.812c.073-.038.048-.5,0-.569" transform="translate(-13.991 -8.669)" fill="#fff"/>
        <path id="Path_57479" data-name="Path 57479" d="M15.273,21.139a.188.188,0,0,0-.054.334c-1.793,0-4.545-.032-5.132-.032-.331,0-1.375-.045-1.394-.045a1.013,1.013,0,0,0,.972.449c.8,0,4.485-.01,5.534-.01a.449.449,0,0,0,.066.431l0,0a.006.006,0,0,0,.006,0h0c.07.019.1-.039.125-.077a6.653,6.653,0,0,0,.8,0c.039.064.079.125.153.116.13-.032.233-.048.238-.347,0,0-.014-.507-.311-.475-.071.01-.267.032-.267.032-.229-.029-.4-.032-.653-.045.024-.032.065-.17.014-.218a.084.084,0,0,0-.061-.019h-.005a.02.02,0,0,1-.006-.007v0a.64.64,0,0,1-.029-.087h-.006m.122.726c.26.013.506,0,.767.016a.117.117,0,0,1-.007.148s0,0,0,0h-.007l-.218-.007c0-.007,0-.01,0-.016-.02-.067-.166-.061-.2-.007v.016a.023.023,0,0,0,0,.01,1.625,1.625,0,0,1-.334-.013c-.032-.045-.029-.128.011-.151" transform="translate(-7.222 -14.714)" fill="#fff"/>
        <path id="Path_57480" data-name="Path 57480" d="M12.638,9.027c-.174.559.1,1.176.29,1.118.138.061.224-.234.281-.556.039-.09.068-.1.088-.055-.006.431.027.527.125.656a.286.286,0,0,0,.413.006c.014-.013.171-.189.171-.189A.094.094,0,0,1,14.149,10c.051.051.044.145.153.2a.307.307,0,0,0,.34-.08c.063-.119.077-.161.105-.2.046-.067.121-.038.121-.016-.007.038-.051.074-.021.141.054.045.066.016.1.007.111-.061.194-.331.194-.331,0-.1-.046-.093-.08-.071s-.044.038-.087.067c-.051.006-.159.048-.21-.042-.054-.109-.054-.263-.1-.373,0-.006-.07-.17,0-.183.032.007.1.029.115-.038.035-.064-.074-.251-.149-.341a.153.153,0,0,0-.241-.01.324.324,0,0,0-.064.2.342.342,0,0,0,.058.269.9.9,0,0,1,.134.549.2.2,0,0,1-.177.1c-.046-.013-.123-.035-.164-.369a2.629,2.629,0,0,0-.088-.78c-.035-.1-.059-.2-.144-.026a.436.436,0,0,0-.051.382,1.261,1.261,0,0,1,.054.594,1.093,1.093,0,0,1-.1.164.157.157,0,0,1-.215.032.259.259,0,0,1-.128-.2,3.238,3.238,0,0,0-.017-.656c-.051-.122-.139-.077-.175-.042a1.558,1.558,0,0,0-.322.742c-.051.18-.1.128-.14.055-.09-.093-.1-.839-.2-.716" transform="translate(-9.123 -8.576)" fill="#fff"/>
        <path id="Path_57481" data-name="Path 57481" d="M11.913,11.722s0,0-.005,0v0c-.011.007-.026.029-.056.055a.307.307,0,0,0-.056.241c0,.016.1.307.176.517a1.8,1.8,0,0,1,.067.7,1.63,1.63,0,0,1-.625.732.287.287,0,0,1-.261,0v0a.186.186,0,0,1-.071-.167,1.6,1.6,0,0,0,.628-.729.85.85,0,0,0,.017-.527.556.556,0,0,0-.107-.241v0c.035-.019.126.058.141.01a.794.794,0,0,0-.18-.372.142.142,0,0,0-.222-.016c-.075.048-.091.218-.056.37.041.109.153.128.23.353v0a.483.483,0,0,1-.013.234,2.524,2.524,0,0,1-.471.495l0,0v0h0v0a.54.54,0,0,0,0-.074c0-.064.023-.219.021-.247v0c-.134.1-.18.4-.2.491a6.047,6.047,0,0,0-.955.735c-.117.2.8-.238.911-.289l0,0a.841.841,0,0,0,.082.19.457.457,0,0,0,.5.183,1.659,1.659,0,0,0,.72-.674c.027-.045.071-.08.11-.045a1.1,1.1,0,0,0,1.019.6c.115-.157.061-.237.014-.266-.015-.013-.249-.116-.284-.218s.032-.177.144-.241a4.516,4.516,0,0,0,.94-.2,1,1,0,0,1,.1-.363.16.16,0,0,1,.051-.064v-.012l-.051-.035-1.023-.006a.129.129,0,0,1-.029-.016V12.8a.063.063,0,0,1,.032-.022c.246-.035.679-.116.706-.588a.393.393,0,0,0-.358-.446.4.4,0,0,0-.313.466c-.009.061.02.186-.037.2-.376.042-.786.307-.8.495h-.005v0h-.005l0,0a.109.109,0,0,1-.051-.116,2.475,2.475,0,0,0-.259-.983c-.051-.061-.076-.083-.092-.086H11.92m1.494.421a.111.111,0,0,1,.08.023.114.114,0,0,1,.063.1v.013l-.006.007c-.02.022-.063.019-.107-.01a.125.125,0,0,1-.063-.093v0q0-.009,0-.009v-.007s0,0,.005-.007a.034.034,0,0,1,.025-.009m-.951.972h.012a2.665,2.665,0,0,0,.428.054c.119.01.177.112.066.157s-.215.074-.215.256a.272.272,0,0,1,0,.153.007.007,0,0,1,0,.006v.007h0l-.005,0a.005.005,0,0,1,0,0c-.027,0-.065-.029-.094-.042a.665.665,0,0,1-.283-.472.115.115,0,0,1,.106-.125" transform="translate(-7.81 -10.111)" fill="#fff"/>
        <path id="Path_57482" data-name="Path 57482" d="M8.4,9.161c.119.061.339.035.33-.177,0-.019,0-.083-.005-.1-.023-.064-.09-.051-.1.016,0,.019.007.055-.009.067s-.05.007-.05-.052a.093.093,0,0,0-.019-.051.03.03,0,0,0-.026-.009c-.016,0-.016.006-.023.022a.148.148,0,0,0-.009.051c0,.022-.011.029-.025.032s-.011,0-.024-.007a.031.031,0,0,1-.017-.03.261.261,0,0,0-.006-.051.051.051,0,0,0-.029-.019c-.065,0-.07.084-.065.116-.006.007-.008.153.079.2" transform="translate(-7.04 -8.704)" fill="#fff"/>
        <path id="Path_57483" data-name="Path 57483" d="M15.156,12.375c.118.061.4.026.331-.18,0-.019,0-.083-.007-.1-.024-.064-.088-.048-.1.016,0,.022.009.058-.008.071s-.048,0-.047-.058a.083.083,0,0,0-.019-.048.031.031,0,0,0-.027-.01c-.015,0-.015.006-.025.022a.189.189,0,0,0-.009.048c0,.022-.009.029-.024.032s-.01,0-.024-.007-.017-.013-.017-.029a.139.139,0,0,0-.008-.051.044.044,0,0,0-.029-.019c-.064,0-.067.083-.065.116,0,0-.007.151.08.2" transform="translate(-10.342 -10.274)" fill="#fff"/>
        <path id="Path_57484" data-name="Path 57484" d="M19.094,11.047c.117.061.339.032.329-.18,0-.016,0-.08-.005-.1-.025-.061-.092-.049-.1.019-.006.019.007.055-.011.064s-.047.006-.046-.055a.116.116,0,0,0-.019-.051.046.046,0,0,0-.026,0c-.016,0-.016,0-.025.019a.2.2,0,0,0-.009.051.025.025,0,0,1-.024.029c-.015,0-.012,0-.023-.007a.034.034,0,0,1-.017-.029.251.251,0,0,0-.008-.055.071.071,0,0,0-.029-.013c-.064,0-.069.083-.065.112,0,.006-.007.153.081.2" transform="translate(-12.266 -9.627)" fill="#fff"/>
        <path id="Path_57485" data-name="Path 57485" d="M21.086,11.791a.892.892,0,0,0-.069.783.6.6,0,0,0,.256.325.165.165,0,0,0,.265-.032c.12-.141.123-.5.178-.569.041-.131.14-.109.188-.051a.523.523,0,0,0,.172.167.266.266,0,0,0,.379.029.468.468,0,0,0,.2-.276,11.24,11.24,0,0,0,.015-1.626c-.006-.038-.116-.668-.116-.674s-.016-.321-.027-.4c0-.032-.01-.041.019-.038.03.032.033.035.051.041s.057-.051.039-.106c-.093-.193-.188-.389-.281-.578-.021-.029-.051-.055-.088,0a.241.241,0,0,0-.069.173c.009.138.03.28.038.418.038.234.075.472.113.71.035.5.045.967.08,1.471-.006.212-.063.5-.121.524,0,0-.082.058-.14,0a1.876,1.876,0,0,1-.2-.307c-.084-.086-.141-.064-.2,0a3.262,3.262,0,0,0-.351.746c-.03.051-.111.1-.2,0a1.176,1.176,0,0,1-.125-.729" transform="translate(-13.216 -8.664)" fill="#fff"/>
        <path id="Path_57486" data-name="Path 57486" d="M19.146,8.921a.455.455,0,0,1,.153.4c-.021.145-.076.307-.117.283s.029-.145-.012-.277c-.025-.086-.168-.241-.153-.289a.1.1,0,0,1,.126-.122" transform="translate(-12.266 -8.74)" fill="#fff"/>
        <path id="Path_57487" data-name="Path 57487" d="M21.35,11.959a3.989,3.989,0,0,0-.023-.636c-.006-.167-.169-1.545-.2-1.674-.04-.241.16-.032.137-.173-.069-.177-.24-.437-.293-.591-.034-.067-.02-.125-.093-.016a1.513,1.513,0,0,0-.065.6,14.694,14.694,0,0,1,.323,2.9c.082,0,.176-.209.217-.418" transform="translate(-13.14 -8.688)" fill="#fff"/>
        <path id="Path_57488" data-name="Path 57488" d="M24.315,12.157c.1.058.153.358.143.443-.018.157-.069.328-.106.307s.008-.235-.011-.3c-.023-.094-.153-.264-.14-.315-.026-.106.057-.151.114-.135" transform="translate(-14.799 -10.324)" fill="#fff"/>
        <path id="Path_57489" data-name="Path 57489" d="M11.308,13.9c.091.039.146.26.135.325-.018.116-.067.238-.1.224s.008-.173-.011-.221c-.007-.119-.135-.18-.132-.231-.024-.093.051-.109.11-.1" transform="translate(-8.444 -11.173)" fill="#fff"/>
        <path id="Path_57490" data-name="Path 57490" d="M6.5,8.78c.136.045.144.27.135.337-.018.119-.067.247-.1.232s0-.177-.019-.228c-.017-.076-.134-.2-.12-.238-.026-.08.051-.119.108-.1" transform="translate(-6.097 -8.673)" fill="#fff"/>
        <path id="Path_57491" data-name="Path 57491" d="M11.745,10.836a.293.293,0,0,0-.079.363.148.148,0,0,0,.169.058c.1.016.163-.215.163-.215s0-.064-.117.058c-.051.013-.058-.01-.071-.042a.325.325,0,0,1,.015-.18c.019-.058-.02-.083-.079-.041" transform="translate(-8.66 -9.669)" fill="#fff"/>
        <path id="Path_57492" data-name="Path 57492" d="M13.222,8.594a.432.432,0,0,0-.159.3c0,.077-.017.077.029.128s.067.048.134.007a.159.159,0,0,0,.064-.1c.016-.09-.083.041-.1-.058s.042-.128.1-.221c0-.061,0-.1-.075-.055" transform="translate(-9.356 -8.574)" fill="#fff"/>
        <path id="Path_57493" data-name="Path 57493" d="M14.565,8.75a2.055,2.055,0,0,0-.046.35c-.019.087.082.125.126.013a1.138,1.138,0,0,0,.072-.382c-.02-.132-.1-.125-.153.019" transform="translate(-10.069 -8.604)" fill="#fff"/>
        <path id="Path_57494" data-name="Path 57494" d="M22.341,12.869c.014-.013.559-.449.559-.449.056-.022.044.225.019.221a2.17,2.17,0,0,1-.578.453c-.027.019-.054-.17,0-.225" transform="translate(-13.877 -10.452)" fill="#fff"/>
        <path id="Path_57495" data-name="Path 57495" d="M23.233,13.289c.1.055.135.369.124.456,0,.167-.093.3-.13.283s0-.209-.014-.276a1.483,1.483,0,0,1-.091-.318c-.027-.106.051-.164.11-.145" transform="translate(-14.271 -10.876)" fill="#fff"/>
        <path id="Path_57496" data-name="Path 57496" d="M16.98,15.8a.84.84,0,0,1,.153-.151.088.088,0,0,1,.106.022c.009.058-.034.116-.02.2.011.032.02.071.073.055a.338.338,0,0,1,.256-.083c.068,0,.069.128.028.128a1.79,1.79,0,0,0-.346.138.073.073,0,0,1-.1-.016.122.122,0,0,1-.01-.112c.005-.064-.018-.1-.067-.1-.037.026-.068.038-.086-.007s-.009-.055.014-.074" transform="translate(-11.262 -12.028)" fill="#fff"/>
        <path id="Path_57497" data-name="Path 57497" d="M24.356,16.12a.085.085,0,0,1,0,.119c-.039.042-.065.061-.1.1-.017.035-.028.086.026.1.1.032.337-.138.337-.145a.084.084,0,0,0,.022-.093c-.022-.029-.072-.013-.105-.013-.017,0-.069-.013-.044-.061a.517.517,0,0,0,.043-.094c.015-.041,0-.067-.057-.09a.449.449,0,0,0-.146,0c-.035.01-.047.029-.051.074,0,.071.041.067.082.1" transform="translate(-14.82 -12.174)" fill="#fff"/>
      </g>
    </g>
  </g>
</svg>
